<?xml version="1.0" encoding="UTF-8" standalone="no"?>
<!DOCTYPE svg PUBLIC "-//W3C//DTD SVG 1.1//EN"
 "http://www.w3.org/Graphics/SVG/1.1/DTD/svg11.dtd">
<!-- Generated by graphviz version 2.40.1 (20161225.0304)
 -->
<!-- Title: G Pages: 1 -->
<svg width="196pt" height="1432pt"
 viewBox="0.00 0.00 196.00 1432.00" xmlns="http://www.w3.org/2000/svg" xmlns:xlink="http://www.w3.org/1999/xlink">
<g id="graph0" class="graph" transform="scale(1 1) rotate(0) translate(4 1428)">
<title>G</title>
<polygon fill="#ffffff" stroke="transparent" points="-4,4 -4,-1428 192,-1428 192,4 -4,4"/>
<!-- 140489398571864 -->
<g id="node1" class="node">
<title>140489398571864</title>
<polygon fill="none" stroke="#000000" points="27.5,-1387.5 27.5,-1423.5 160.5,-1423.5 160.5,-1387.5 27.5,-1387.5"/>
<text text-anchor="middle" x="94" y="-1401.8" font-family="Times,serif" font-size="14.00" fill="#000000">input_1: InputLayer</text>
</g>
<!-- 140489251597784 -->
<g id="node2" class="node">
<title>140489251597784</title>
<polygon fill="none" stroke="#000000" points="15,-1314.5 15,-1350.5 173,-1350.5 173,-1314.5 15,-1314.5"/>
<text text-anchor="middle" x="94" y="-1328.8" font-family="Times,serif" font-size="14.00" fill="#000000">block1_conv1: Conv2D</text>
</g>
<!-- 140489398571864&#45;&gt;140489251597784 -->
<g id="edge1" class="edge">
<title>140489398571864&#45;&gt;140489251597784</title>
<path fill="none" stroke="#000000" d="M94,-1387.4551C94,-1379.3828 94,-1369.6764 94,-1360.6817"/>
<polygon fill="#000000" stroke="#000000" points="97.5001,-1360.5903 94,-1350.5904 90.5001,-1360.5904 97.5001,-1360.5903"/>
</g>
<!-- 140487667830624 -->
<g id="node3" class="node">
<title>140487667830624</title>
<polygon fill="none" stroke="#000000" points="15,-1241.5 15,-1277.5 173,-1277.5 173,-1241.5 15,-1241.5"/>
<text text-anchor="middle" x="94" y="-1255.8" font-family="Times,serif" font-size="14.00" fill="#000000">block1_conv2: Conv2D</text>
</g>
<!-- 140489251597784&#45;&gt;140487667830624 -->
<g id="edge2" class="edge">
<title>140489251597784&#45;&gt;140487667830624</title>
<path fill="none" stroke="#000000" d="M94,-1314.4551C94,-1306.3828 94,-1296.6764 94,-1287.6817"/>
<polygon fill="#000000" stroke="#000000" points="97.5001,-1287.5903 94,-1277.5904 90.5001,-1287.5904 97.5001,-1287.5903"/>
</g>
<!-- 140487667725928 -->
<g id="node4" class="node">
<title>140487667725928</title>
<polygon fill="none" stroke="#000000" points="0,-1168.5 0,-1204.5 188,-1204.5 188,-1168.5 0,-1168.5"/>
<text text-anchor="middle" x="94" y="-1182.8" font-family="Times,serif" font-size="14.00" fill="#000000">block1_pool: MaxPooling2D</text>
</g>
<!-- 140487667830624&#45;&gt;140487667725928 -->
<g id="edge3" class="edge">
<title>140487667830624&#45;&gt;140487667725928</title>
<path fill="none" stroke="#000000" d="M94,-1241.4551C94,-1233.3828 94,-1223.6764 94,-1214.6817"/>
<polygon fill="#000000" stroke="#000000" points="97.5001,-1214.5903 94,-1204.5904 90.5001,-1214.5904 97.5001,-1214.5903"/>
</g>
<!-- 140489242767712 -->
<g id="node5" class="node">
<title>140489242767712</title>
<polygon fill="none" stroke="#000000" points="15,-1095.5 15,-1131.5 173,-1131.5 173,-1095.5 15,-1095.5"/>
<text text-anchor="middle" x="94" y="-1109.8" font-family="Times,serif" font-size="14.00" fill="#000000">block2_conv1: Conv2D</text>
</g>
<!-- 140487667725928&#45;&gt;140489242767712 -->
<g id="edge4" class="edge">
<title>140487667725928&#45;&gt;140489242767712</title>
<path fill="none" stroke="#000000" d="M94,-1168.4551C94,-1160.3828 94,-1150.6764 94,-1141.6817"/>
<polygon fill="#000000" stroke="#000000" points="97.5001,-1141.5903 94,-1131.5904 90.5001,-1141.5904 97.5001,-1141.5903"/>
</g>
<!-- 140487658787784 -->
<g id="node6" class="node">
<title>140487658787784</title>
<polygon fill="none" stroke="#000000" points="15,-1022.5 15,-1058.5 173,-1058.5 173,-1022.5 15,-1022.5"/>
<text text-anchor="middle" x="94" y="-1036.8" font-family="Times,serif" font-size="14.00" fill="#000000">block2_conv2: Conv2D</text>
</g>
<!-- 140489242767712&#45;&gt;140487658787784 -->
<g id="edge5" class="edge">
<title>140489242767712&#45;&gt;140487658787784</title>
<path fill="none" stroke="#000000" d="M94,-1095.4551C94,-1087.3828 94,-1077.6764 94,-1068.6817"/>
<polygon fill="#000000" stroke="#000000" points="97.5001,-1068.5903 94,-1058.5904 90.5001,-1068.5904 97.5001,-1068.5903"/>
</g>
<!-- 140487658879632 -->
<g id="node7" class="node">
<title>140487658879632</title>
<polygon fill="none" stroke="#000000" points="0,-949.5 0,-985.5 188,-985.5 188,-949.5 0,-949.5"/>
<text text-anchor="middle" x="94" y="-963.8" font-family="Times,serif" font-size="14.00" fill="#000000">block2_pool: MaxPooling2D</text>
</g>
<!-- 140487658787784&#45;&gt;140487658879632 -->
<g id="edge6" class="edge">
<title>140487658787784&#45;&gt;140487658879632</title>
<path fill="none" stroke="#000000" d="M94,-1022.4551C94,-1014.3828 94,-1004.6764 94,-995.6817"/>
<polygon fill="#000000" stroke="#000000" points="97.5001,-995.5903 94,-985.5904 90.5001,-995.5904 97.5001,-995.5903"/>
</g>
<!-- 140487658878456 -->
<g id="node8" class="node">
<title>140487658878456</title>
<polygon fill="none" stroke="#000000" points="15,-876.5 15,-912.5 173,-912.5 173,-876.5 15,-876.5"/>
<text text-anchor="middle" x="94" y="-890.8" font-family="Times,serif" font-size="14.00" fill="#000000">block3_conv1: Conv2D</text>
</g>
<!-- 140487658879632&#45;&gt;140487658878456 -->
<g id="edge7" class="edge">
<title>140487658879632&#45;&gt;140487658878456</title>
<path fill="none" stroke="#000000" d="M94,-949.4551C94,-941.3828 94,-931.6764 94,-922.6817"/>
<polygon fill="#000000" stroke="#000000" points="97.5001,-922.5903 94,-912.5904 90.5001,-922.5904 97.5001,-922.5903"/>
</g>
<!-- 140487658517168 -->
<g id="node9" class="node">
<title>140487658517168</title>
<polygon fill="none" stroke="#000000" points="15,-803.5 15,-839.5 173,-839.5 173,-803.5 15,-803.5"/>
<text text-anchor="middle" x="94" y="-817.8" font-family="Times,serif" font-size="14.00" fill="#000000">block3_conv2: Conv2D</text>
</g>
<!-- 140487658878456&#45;&gt;140487658517168 -->
<g id="edge8" class="edge">
<title>140487658878456&#45;&gt;140487658517168</title>
<path fill="none" stroke="#000000" d="M94,-876.4551C94,-868.3828 94,-858.6764 94,-849.6817"/>
<polygon fill="#000000" stroke="#000000" points="97.5001,-849.5903 94,-839.5904 90.5001,-849.5904 97.5001,-849.5903"/>
</g>
<!-- 140487658618104 -->
<g id="node10" class="node">
<title>140487658618104</title>
<polygon fill="none" stroke="#000000" points="15,-730.5 15,-766.5 173,-766.5 173,-730.5 15,-730.5"/>
<text text-anchor="middle" x="94" y="-744.8" font-family="Times,serif" font-size="14.00" fill="#000000">block3_conv3: Conv2D</text>
</g>
<!-- 140487658517168&#45;&gt;140487658618104 -->
<g id="edge9" class="edge">
<title>140487658517168&#45;&gt;140487658618104</title>
<path fill="none" stroke="#000000" d="M94,-803.4551C94,-795.3828 94,-785.6764 94,-776.6817"/>
<polygon fill="#000000" stroke="#000000" points="97.5001,-776.5903 94,-766.5904 90.5001,-776.5904 97.5001,-776.5903"/>
</g>
<!-- 140487658272136 -->
<g id="node11" class="node">
<title>140487658272136</title>
<polygon fill="none" stroke="#000000" points="0,-657.5 0,-693.5 188,-693.5 188,-657.5 0,-657.5"/>
<text text-anchor="middle" x="94" y="-671.8" font-family="Times,serif" font-size="14.00" fill="#000000">block3_pool: MaxPooling2D</text>
</g>
<!-- 140487658618104&#45;&gt;140487658272136 -->
<g id="edge10" class="edge">
<title>140487658618104&#45;&gt;140487658272136</title>
<path fill="none" stroke="#000000" d="M94,-730.4551C94,-722.3828 94,-712.6764 94,-703.6817"/>
<polygon fill="#000000" stroke="#000000" points="97.5001,-703.5903 94,-693.5904 90.5001,-703.5904 97.5001,-703.5903"/>
</g>
<!-- 140487658271016 -->
<g id="node12" class="node">
<title>140487658271016</title>
<polygon fill="none" stroke="#000000" points="15,-584.5 15,-620.5 173,-620.5 173,-584.5 15,-584.5"/>
<text text-anchor="middle" x="94" y="-598.8" font-family="Times,serif" font-size="14.00" fill="#000000">block4_conv1: Conv2D</text>
</g>
<!-- 140487658272136&#45;&gt;140487658271016 -->
<g id="edge11" class="edge">
<title>140487658272136&#45;&gt;140487658271016</title>
<path fill="none" stroke="#000000" d="M94,-657.4551C94,-649.3828 94,-639.6764 94,-630.6817"/>
<polygon fill="#000000" stroke="#000000" points="97.5001,-630.5903 94,-620.5904 90.5001,-630.5904 97.5001,-630.5903"/>
</g>
<!-- 140487658471720 -->
<g id="node13" class="node">
<title>140487658471720</title>
<polygon fill="none" stroke="#000000" points="15,-511.5 15,-547.5 173,-547.5 173,-511.5 15,-511.5"/>
<text text-anchor="middle" x="94" y="-525.8" font-family="Times,serif" font-size="14.00" fill="#000000">block4_conv2: Conv2D</text>
</g>
<!-- 140487658271016&#45;&gt;140487658471720 -->
<g id="edge12" class="edge">
<title>140487658271016&#45;&gt;140487658471720</title>
<path fill="none" stroke="#000000" d="M94,-584.4551C94,-576.3828 94,-566.6764 94,-557.6817"/>
<polygon fill="#000000" stroke="#000000" points="97.5001,-557.5903 94,-547.5904 90.5001,-557.5904 97.5001,-557.5903"/>
</g>
<!-- 140487658035296 -->
<g id="node14" class="node">
<title>140487658035296</title>
<polygon fill="none" stroke="#000000" points="15,-438.5 15,-474.5 173,-474.5 173,-438.5 15,-438.5"/>
<text text-anchor="middle" x="94" y="-452.8" font-family="Times,serif" font-size="14.00" fill="#000000">block4_conv3: Conv2D</text>
</g>
<!-- 140487658471720&#45;&gt;140487658035296 -->
<g id="edge13" class="edge">
<title>140487658471720&#45;&gt;140487658035296</title>
<path fill="none" stroke="#000000" d="M94,-511.4551C94,-503.3828 94,-493.6764 94,-484.6817"/>
<polygon fill="#000000" stroke="#000000" points="97.5001,-484.5903 94,-474.5904 90.5001,-484.5904 97.5001,-484.5903"/>
</g>
<!-- 140487658136408 -->
<g id="node15" class="node">
<title>140487658136408</title>
<polygon fill="none" stroke="#000000" points="0,-365.5 0,-401.5 188,-401.5 188,-365.5 0,-365.5"/>
<text text-anchor="middle" x="94" y="-379.8" font-family="Times,serif" font-size="14.00" fill="#000000">block4_pool: MaxPooling2D</text>
</g>
<!-- 140487658035296&#45;&gt;140487658136408 -->
<g id="edge14" class="edge">
<title>140487658035296&#45;&gt;140487658136408</title>
<path fill="none" stroke="#000000" d="M94,-438.4551C94,-430.3828 94,-420.6764 94,-411.6817"/>
<polygon fill="#000000" stroke="#000000" points="97.5001,-411.5903 94,-401.5904 90.5001,-411.5904 97.5001,-411.5903"/>
</g>
<!-- 140487658137752 -->
<g id="node16" class="node">
<title>140487658137752</title>
<polygon fill="none" stroke="#000000" points="15,-292.5 15,-328.5 173,-328.5 173,-292.5 15,-292.5"/>
<text text-anchor="middle" x="94" y="-306.8" font-family="Times,serif" font-size="14.00" fill="#000000">block5_conv1: Conv2D</text>
</g>
<!-- 140487658136408&#45;&gt;140487658137752 -->
<g id="edge15" class="edge">
<title>140487658136408&#45;&gt;140487658137752</title>
<path fill="none" stroke="#000000" d="M94,-365.4551C94,-357.3828 94,-347.6764 94,-338.6817"/>
<polygon fill="#000000" stroke="#000000" points="97.5001,-338.5903 94,-328.5904 90.5001,-338.5904 97.5001,-338.5903"/>
</g>
<!-- 140487657794248 -->
<g id="node17" class="node">
<title>140487657794248</title>
<polygon fill="none" stroke="#000000" points="15,-219.5 15,-255.5 173,-255.5 173,-219.5 15,-219.5"/>
<text text-anchor="middle" x="94" y="-233.8" font-family="Times,serif" font-size="14.00" fill="#000000">block5_conv2: Conv2D</text>
</g>
<!-- 140487658137752&#45;&gt;140487657794248 -->
<g id="edge16" class="edge">
<title>140487658137752&#45;&gt;140487657794248</title>
<path fill="none" stroke="#000000" d="M94,-292.4551C94,-284.3828 94,-274.6764 94,-265.6817"/>
<polygon fill="#000000" stroke="#000000" points="97.5001,-265.5903 94,-255.5904 90.5001,-265.5904 97.5001,-265.5903"/>
</g>
<!-- 140487657443960 -->
<g id="node18" class="node">
<title>140487657443960</title>
<polygon fill="none" stroke="#000000" points="15,-146.5 15,-182.5 173,-182.5 173,-146.5 15,-146.5"/>
<text text-anchor="middle" x="94" y="-160.8" font-family="Times,serif" font-size="14.00" fill="#000000">block5_conv3: Conv2D</text>
</g>
<!-- 140487657794248&#45;&gt;140487657443960 -->
<g id="edge17" class="edge">
<title>140487657794248&#45;&gt;140487657443960</title>
<path fill="none" stroke="#000000" d="M94,-219.4551C94,-211.3828 94,-201.6764 94,-192.6817"/>
<polygon fill="#000000" stroke="#000000" points="97.5001,-192.5903 94,-182.5904 90.5001,-192.5904 97.5001,-192.5903"/>
</g>
<!-- 140487657548544 -->
<g id="node19" class="node">
<title>140487657548544</title>
<polygon fill="none" stroke="#000000" points="0,-73.5 0,-109.5 188,-109.5 188,-73.5 0,-73.5"/>
<text text-anchor="middle" x="94" y="-87.8" font-family="Times,serif" font-size="14.00" fill="#000000">block5_pool: MaxPooling2D</text>
</g>
<!-- 140487657443960&#45;&gt;140487657548544 -->
<g id="edge18" class="edge">
<title>140487657443960&#45;&gt;140487657548544</title>
<path fill="none" stroke="#000000" d="M94,-146.4551C94,-138.3828 94,-128.6764 94,-119.6817"/>
<polygon fill="#000000" stroke="#000000" points="97.5001,-119.5903 94,-109.5904 90.5001,-119.5904 97.5001,-119.5903"/>
</g>
<!-- 140487657649376 -->
<g id="node20" class="node">
<title>140487657649376</title>
<polygon fill="none" stroke="#000000" points="16,-.5 16,-36.5 172,-36.5 172,-.5 16,-.5"/>
<text text-anchor="middle" x="94" y="-14.8" font-family="Times,serif" font-size="14.00" fill="#000000">sequential_1: Sequential</text>
</g>
<!-- 140487657548544&#45;&gt;140487657649376 -->
<g id="edge19" class="edge">
<title>140487657548544&#45;&gt;140487657649376</title>
<path fill="none" stroke="#000000" d="M94,-73.4551C94,-65.3828 94,-55.6764 94,-46.6817"/>
<polygon fill="#000000" stroke="#000000" points="97.5001,-46.5903 94,-36.5904 90.5001,-46.5904 97.5001,-46.5903"/>
</g>
</g>
</svg>
